HIERARCHY
ROOT Pelvis
{
	OFFSET 0.000000 0.000000 0.000000
	CHANNELS 6 Xposition Yposition Zposition Xrotation Yrotation Zrotation
	JOINT LeftUpLeg_virtual
	{
		OFFSET 0.000000 0.000000 0.000000
		CHANNELS 3 Xrotation Yrotation Zrotation
		JOINT LeftUpLeg
		{
			OFFSET 18.735201 -5.666702 -4.541200
			CHANNELS 3 Xrotation Yrotation Zrotation
			JOINT LeftLeg
			{
				OFFSET -0.021200 -31.938179 0.493100
				CHANNELS 3 Xrotation Yrotation Zrotation
				JOINT LeftFoot
				{
					OFFSET 0.021200 -31.938179 -4.336299
					CHANNELS 3 Xrotation Yrotation Zrotation
					JOINT LeftToeBase
					{
						OFFSET 0.943001 -26.722000 15.023500
						CHANNELS 3 Xrotation Yrotation Zrotation
						End Site
						{
							OFFSET 0 0 0
						}
					}
				}
			}
		}
	}
	JOINT RightUpLeg_virtual
	{
		OFFSET 0.000000 0.000000 0.000000
		CHANNELS 3 Xrotation Yrotation Zrotation
		JOINT RightUpLeg
		{
			OFFSET -18.735201 -5.666702 -4.541200
			CHANNELS 3 Xrotation Yrotation Zrotation
			JOINT RightLeg
			{
				OFFSET 0.018946 -31.938133 0.493100
				CHANNELS 3 Xrotation Yrotation Zrotation
				JOINT RightFoot
				{
					OFFSET -0.018946 -31.938126 -4.336299
					CHANNELS 3 Xrotation Yrotation Zrotation
					JOINT RightToeBase
					{
						OFFSET -0.943001 -26.722004 15.023500
						CHANNELS 3 Xrotation Yrotation Zrotation
						End Site
						{
							OFFSET 0 0 0
						}
					}
				}
			}
		}
	}
	JOINT Hips_virtual
	{
		OFFSET 0.000000 0.000000 0.000000
		CHANNELS 3 Xrotation Yrotation Zrotation
		JOINT Hips
		{
			OFFSET -0.000000 -0.000000 -0.000000
			CHANNELS 3 Xrotation Yrotation Zrotation
			JOINT Spine
			{
				OFFSET 0.000000 10.199997 -0.299500
				CHANNELS 3 Xrotation Yrotation Zrotation
				JOINT Spine1
				{
					OFFSET 0.000000 11.900002 -1.516600
					CHANNELS 3 Xrotation Yrotation Zrotation
					JOINT Spine2
					{
						OFFSET 0.000000 13.600006 -2.842500
						CHANNELS 3 Xrotation Yrotation Zrotation
						JOINT Neck_virtual
						{
							OFFSET 0.000000 0.000000 0.000000
							CHANNELS 3 Xrotation Yrotation Zrotation
							JOINT Neck
							{
								OFFSET 0.000000 9.624100 -2.890100
								CHANNELS 3 Xrotation Yrotation Zrotation
								JOINT Head
								{
									OFFSET 0.000000 14.068802 -1.351900
									CHANNELS 3 Xrotation Yrotation Zrotation
									End Site
									{
										OFFSET 0 0 0
									}
								}
							}
						}
						JOINT LeftShoulder_virtual
						{
							OFFSET 0.000000 0.000000 0.000000
							CHANNELS 3 Xrotation Yrotation Zrotation
							JOINT LeftShoulder
							{
								OFFSET 15.263000 10.923401 -0.547700
								CHANNELS 3 Xrotation Yrotation Zrotation
								JOINT LeftArm
								{
									OFFSET 25.438599 -2.830597 -13.032500
									CHANNELS 3 Xrotation Yrotation Zrotation
									JOINT LeftForeArm
									{
										OFFSET 29.960503 0.000000 0.000000
										CHANNELS 3 Xrotation Yrotation Zrotation
										JOINT LeftHand
										{
											OFFSET 27.849251 0.000000 0.000000
											CHANNELS 3 Xrotation Yrotation Zrotation
											End Site
											{
												OFFSET 0 0 0
											}
										}
									}
								}
							}
						}
						JOINT RightShoulder_virtual
						{
							OFFSET 0.000000 0.000000 0.000000
							CHANNELS 3 Xrotation Yrotation Zrotation
							JOINT RightShoulder
							{
								OFFSET -15.263000 10.923401 -0.547700
								CHANNELS 3 Xrotation Yrotation Zrotation
								JOINT RightArm
								{
									OFFSET -25.438599 -2.830597 -13.032500
									CHANNELS 3 Xrotation Yrotation Zrotation
									JOINT RightForeArm
									{
										OFFSET -29.960503 0.000000 0.000000
										CHANNELS 3 Xrotation Yrotation Zrotation
										JOINT RightHand
										{
											OFFSET -27.849251 0.000000 0.000000
											CHANNELS 3 Xrotation Yrotation Zrotation
											End Site
											{
												OFFSET 0 0 0
											}
										}
									}
								}
							}
						}
					}
				}
			}
		}
	}
}
MOTION
Frames: 5
Frame Time: 0.03333333
-1.826342 78.295921 3.109032 0.000000 0.000000 0.000000 7.991867 -11.904764 4.227275 -60.047458 1.353992 23.594754 53.808346 -0.784621 7.183132 2.514275 1.570256 -25.917925 0.000000 0.000000 0.000000 8.626781 -10.935194 4.036713 -37.248601 4.659383 -36.170978 56.728252 3.029740 -1.205805 -24.730575 -9.085258 29.836015 0.000000 0.000000 0.000000 8.302655 -11.719456 4.472113 -0.045379 -0.033584 -0.922743 7.969015 0.478271 -2.719596 6.518295 1.422127 -0.655514 0.000000 0.000000 0.000000 6.314091 1.550321 -0.691945 -0.798909 -0.206436 0.341375 0.000000 0.000000 0.000000 6.420825 1.725454 -0.678809 3.566802 -16.205498 -7.057453 -23.147209 -3.473929 -48.254586 178.157589 -57.705939 177.805602 0.000000 0.000000 0.000000 6.606844 1.559748 -0.819391 2.454199 9.205722 9.972607 7.529093 6.674068 39.431806 -172.262439 87.957516 172.943177 0.000000 0.000000 0.000000 
-1.799296 78.300423 3.167847 0.000000 0.000000 0.000000 7.989802 -11.904802 4.210193 -60.015486 1.389760 23.550941 53.836535 -0.729719 7.211023 2.480412 1.560680 -25.849244 0.000000 0.000000 0.000000 8.621257 -10.915133 4.019858 -37.308214 4.693246 -36.200925 56.711925 3.051519 -1.209429 -24.299843 -8.941499 29.976706 0.000000 0.000000 0.000000 8.284196 -11.687693 4.449746 -0.049006 -0.024931 -0.939226 8.005722 0.478424 -2.734066 6.534813 1.422713 -0.672899 0.000000 0.000000 0.000000 6.308659 1.549198 -0.701306 -0.800901 -0.201268 0.345077 0.000000 0.000000 0.000000 6.412635 1.722322 -0.690500 3.573488 -16.251571 -7.026223 -23.315129 -3.628959 -48.369682 178.179404 -57.668353 177.781614 0.000000 0.000000 0.000000 6.615256 1.564870 -0.824349 2.450473 9.282851 9.959696 7.664251 6.796357 39.288997 -172.352078 87.890485 173.042433 0.000000 0.000000 0.000000 
-1.741798 78.313309 3.253689 0.000000 0.000000 0.000000 8.012430 -11.908616 4.150881 -59.958522 1.351674 23.430534 53.901087 -0.614814 7.299270 2.441992 1.581848 -25.732275 0.000000 0.000000 0.000000 8.628344 -10.893368 3.957220 -37.351702 4.704254 -36.220155 56.548536 3.073946 -1.214538 -23.688016 -8.764302 30.187332 0.000000 0.000000 0.000000 8.289579 -11.649793 4.381046 -0.060282 -0.007691 -0.943932 8.035750 0.479814 -2.771875 6.557582 1.445020 -0.692294 0.000000 0.000000 0.000000 6.326902 1.568211 -0.710536 -0.790921 -0.197488 0.333532 0.000000 0.000000 0.000000 6.409647 1.742708 -0.705611 3.576109 -16.244609 -6.964238 -23.631336 -3.848586 -48.659692 178.183038 -57.748040 177.744677 0.000000 0.000000 0.000000 6.617160 1.588473 -0.826788 2.445524 9.494853 9.923096 8.050011 6.951064 38.875784 -172.572803 87.812600 173.286161 0.000000 0.000000 0.000000 
-1.666362 78.314682 3.329762 0.000000 0.000000 0.000000 8.051860 -11.915519 4.061091 -59.920293 1.250301 23.266572 54.037270 -0.452862 7.435386 2.356828 1.634778 -25.584319 0.000000 0.000000 0.000000 8.650047 -10.883077 3.865233 -37.379446 4.694128 -36.212164 56.320466 3.085127 -1.220203 -23.147180 -8.632011 30.357998 0.000000 0.000000 0.000000 8.321184 -11.618286 4.286210 -0.092447 -0.026294 -0.936105 8.058672 0.483792 -2.827475 6.583796 1.481664 -0.717442 0.000000 0.000000 0.000000 6.356690 1.599198 -0.724218 -0.774319 -0.197213 0.306257 0.000000 0.000000 0.000000 6.407467 1.776626 -0.727910 3.574564 -16.186131 -6.878410 -24.029027 -4.066765 -49.046632 178.168763 -57.926145 177.696155 0.000000 0.000000 0.000000 6.617418 1.624951 -0.836365 2.438227 9.795573 9.839895 8.544871 7.121833 38.302704 -173.101254 87.779214 173.843423 0.000000 0.000000 0.000000 
-1.582271 78.289848 3.363045 0.000000 0.000000 0.000000 8.092832 -11.917235 3.958921 -59.941761 1.102048 23.091333 54.250509 -0.264630 7.601745 2.193068 1.697438 -25.453217 0.000000 0.000000 0.000000 8.679719 -10.880167 3.762236 -37.396638 4.670872 -36.179194 56.130303 3.084983 -1.220235 -22.863037 -8.589747 30.447139 0.000000 0.000000 0.000000 8.368250 -11.597631 4.190401 -0.111878 -0.071986 -0.923393 8.080596 0.489822 -2.894829 6.612221 1.519539 -0.754915 0.000000 0.000000 0.000000 6.379027 1.630608 -0.749035 -0.755547 -0.200551 0.268095 0.000000 0.000000 0.000000 6.404139 1.809804 -0.758471 3.571569 -16.114078 -6.762528 -24.466841 -4.243734 -49.442930 178.125869 -58.173889 177.617294 0.000000 0.000000 0.000000 6.616100 1.661562 -0.861932 2.436301 10.122749 9.696954 9.032795 7.263164 37.689301 -174.125195 87.826329 174.896542 0.000000 0.000000 0.000000 
